<svg width="24" height="24" viewBox="0 0 24 24" fill="none" xmlns="http://www.w3.org/2000/svg">
<path d="M-4456 -486C-4456 -487.105 -4455.1 -488 -4454 -488H604C605.104 -488 606 -487.105 606 -486V4427C606 4428.1 605.104 4429 604 4429H-4454C-4455.1 4429 -4456 4428.1 -4456 4427V-486Z" fill="#282828"/>
<path d="M-4454 -487H604V-489H-4454V-487ZM605 -486V4427H607V-486H605ZM604 4428H-4454V4430H604V4428ZM-4455 4427V-486H-4457V4427H-4455ZM-4454 4428C-4454.55 4428 -4455 4427.55 -4455 4427H-4457C-4457 4428.66 -4455.66 4430 -4454 4430V4428ZM605 4427C605 4427.55 604.552 4428 604 4428V4430C605.657 4430 607 4428.66 607 4427H605ZM604 -487C604.552 -487 605 -486.552 605 -486H607C607 -487.657 605.657 -489 604 -489V-487ZM-4454 -489C-4455.66 -489 -4457 -487.657 -4457 -486H-4455C-4455 -486.552 -4454.55 -487 -4454 -487V-489Z" fill="black" fill-opacity="0.1"/>
<g clip-path="url(#clip0_0_1)">
<rect width="1440" height="3879" transform="translate(-1148 -78)" fill="white"/>
<mask id="path-3-inside-1_0_1" fill="white">
<path d="M-1148 -46H292V142H-1148V-46Z"/>
</mask>
<path d="M-1148 -46H292V142H-1148V-46Z" fill="white"/>
<path d="M292 141H-1148V143H292V141Z" fill="#E5E5E5" mask="url(#path-3-inside-1_0_1)"/>
<path d="M12.62 20.8116C12.28 20.9316 11.72 20.9316 11.38 20.8116C8.48 19.8216 2 15.6916 2 8.69156C2 5.60156 4.49 3.10156 7.56 3.10156C9.38 3.10156 10.99 3.98156 12 5.34156C13.01 3.98156 14.63 3.10156 16.44 3.10156C19.51 3.10156 22 5.60156 22 8.69156C22 15.6916 15.52 19.8216 12.62 20.8116Z" stroke="#292D32" stroke-width="1.5" stroke-linecap="round" stroke-linejoin="round"/>
</g>
<defs>
<clipPath id="clip0_0_1">
<rect width="1440" height="3879" fill="white" transform="translate(-1148 -78)"/>
</clipPath>
</defs>
</svg>
