<svg width="24" height="24" viewBox="0 0 24 24" fill="none" xmlns="http://www.w3.org/2000/svg">
<path d="M-4504 -486C-4504 -487.105 -4503.1 -488 -4502 -488H556C557.104 -488 558 -487.105 558 -486V4427C558 4428.1 557.104 4429 556 4429H-4502C-4503.1 4429 -4504 4428.1 -4504 4427V-486Z" fill="#282828"/>
<path d="M-4502 -487H556V-489H-4502V-487ZM557 -486V4427H559V-486H557ZM556 4428H-4502V4430H556V4428ZM-4503 4427V-486H-4505V4427H-4503ZM-4502 4428C-4502.55 4428 -4503 4427.55 -4503 4427H-4505C-4505 4428.66 -4503.66 4430 -4502 4430V4428ZM557 4427C557 4427.55 556.552 4428 556 4428V4430C557.657 4430 559 4428.66 559 4427H557ZM556 -487C556.552 -487 557 -486.552 557 -486H559C559 -487.657 557.657 -489 556 -489V-487ZM-4502 -489C-4503.66 -489 -4505 -487.657 -4505 -486H-4503C-4503 -486.552 -4502.55 -487 -4502 -487V-489Z" fill="black" fill-opacity="0.1"/>
<g clip-path="url(#clip0_0_1)">
<rect width="1440" height="3879" transform="translate(-1196 -78)" fill="white"/>
<mask id="path-3-inside-1_0_1" fill="white">
<path d="M-1196 -46H244V142H-1196V-46Z"/>
</mask>
<path d="M-1196 -46H244V142H-1196V-46Z" fill="white"/>
<path d="M244 141H-1196V143H244V141Z" fill="#E5E5E5" mask="url(#path-3-inside-1_0_1)"/>
<path d="M8.39612 6.5H15.5961C18.9961 6.5 19.3361 8.09 19.5661 10.03L20.4661 17.53C20.7561 19.99 19.9961 22 16.4961 22H7.50612C3.99612 22 3.23612 19.99 3.53612 17.53L4.43613 10.03C4.65613 8.09 4.99612 6.5 8.39612 6.5Z" stroke="#292D32" stroke-width="1.5" stroke-linecap="round" stroke-linejoin="round"/>
<path d="M8 8V4.5C8 3 9 2 10.5 2H13.5C15 2 16 3 16 4.5V8" stroke="#292D32" stroke-width="1.5" stroke-linecap="round" stroke-linejoin="round"/>
<path d="M20.41 17.0312H8" stroke="#292D32" stroke-width="1.5" stroke-linecap="round" stroke-linejoin="round"/>
</g>
<defs>
<clipPath id="clip0_0_1">
<rect width="1440" height="3879" fill="white" transform="translate(-1196 -78)"/>
</clipPath>
</defs>
</svg>
