<svg width="16" height="16" viewBox="0 0 16 16" fill="none" xmlns="http://www.w3.org/2000/svg">
<path d="M-2004 -416C-2004 -417.105 -2003.1 -418 -2002 -418H3056C3057.1 -418 3058 -417.105 3058 -416V4497C3058 4498.1 3057.1 4499 3056 4499H-2002C-2003.1 4499 -2004 4498.1 -2004 4497V-416Z" fill="#282828"/>
<path d="M-2002 -417H3056V-419H-2002V-417ZM3057 -416V4497H3059V-416H3057ZM3056 4498H-2002V4500H3056V4498ZM-2003 4497V-416H-2005V4497H-2003ZM-2002 4498C-2002.55 4498 -2003 4497.55 -2003 4497H-2005C-2005 4498.66 -2003.66 4500 -2002 4500V4498ZM3057 4497C3057 4497.55 3056.55 4498 3056 4498V4500C3057.66 4500 3059 4498.66 3059 4497H3057ZM3056 -417C3056.55 -417 3057 -416.552 3057 -416H3059C3059 -417.657 3057.66 -419 3056 -419V-417ZM-2002 -419C-2003.66 -419 -2005 -417.657 -2005 -416H-2003C-2003 -416.552 -2002.55 -417 -2002 -417V-419Z" fill="black" fill-opacity="0.1"/>
<rect width="1440" height="4373" transform="translate(-274 -8)" fill="white"/>
<rect width="1440" height="32" transform="translate(-274 -8)" fill="black"/>
<path d="M14.6667 7.26146V2.72812C14.6667 1.72812 14.24 1.32812 13.18 1.32812H10.4867C9.42667 1.32812 9 1.72812 9 2.72812V7.26146C9 8.26146 9.42667 8.66146 10.4867 8.66146H13.18C14.24 8.66146 14.6667 8.26146 14.6667 7.26146Z" stroke="#EB4C6B" stroke-linecap="round" stroke-linejoin="round"/>
<path d="M14.6667 13.2719V12.0719C14.6667 11.0719 14.24 10.6719 13.18 10.6719H10.4867C9.42667 10.6719 9 11.0719 9 12.0719V13.2719C9 14.2719 9.42667 14.6719 10.4867 14.6719H13.18C14.24 14.6719 14.6667 14.2719 14.6667 13.2719Z" stroke="#EB4C6B" stroke-linecap="round" stroke-linejoin="round"/>
<path d="M7.0026 8.72813V13.2615C7.0026 14.2615 6.57594 14.6615 5.51594 14.6615H2.8226C1.7626 14.6615 1.33594 14.2615 1.33594 13.2615V8.72813C1.33594 7.72813 1.7626 7.32812 2.8226 7.32812H5.51594C6.57594 7.32812 7.0026 7.72813 7.0026 8.72813Z" stroke="#EB4C6B" stroke-linecap="round" stroke-linejoin="round"/>
<path d="M7.0026 2.72812V3.92813C7.0026 4.92813 6.57594 5.32813 5.51594 5.32813H2.8226C1.7626 5.32813 1.33594 4.92813 1.33594 3.92813V2.72812C1.33594 1.72812 1.7626 1.32812 2.8226 1.32812H5.51594C6.57594 1.32812 7.0026 1.72812 7.0026 2.72812Z" stroke="#EB4C6B" stroke-linecap="round" stroke-linejoin="round"/>
</svg>
